<?xml version="1.0"?>

<svg xmlns="http://www.w3.org/2000/svg" style="display:none">
  
  <symbol id="i-grid" viewBox="0 0 24 24" fill="none" stroke="currentColor" stroke-width="1.8" stroke-linecap="round" stroke-linejoin="round"><rect x="3" y="3" width="7" height="7" rx="1"></rect><rect x="14" y="3" width="7" height="7" rx="1"></rect><rect x="14" y="14" width="7" height="7" rx="1"></rect><rect x="3" y="14" width="7" height="7" rx="1"></rect></symbol>
  <symbol id="i-database" viewBox="0 0 24 24" fill="none" stroke="currentColor" stroke-width="1.8" stroke-linecap="round" stroke-linejoin="round"><ellipse cx="12" cy="5" rx="9" ry="3"></ellipse><path d="M3 5v14a9 3 0 0 0 18 0V5"></path><path d="M3 12a9 3 0 0 0 18 0"></path></symbol>
  <symbol id="i-folder" viewBox="0 0 24 24" fill="none" stroke="currentColor" stroke-width="1.8" stroke-linecap="round" stroke-linejoin="round"><path d="M4 20h16a2 2 0 0 0 2-2V8a2 2 0 0 0-2-2h-8l-2-3H4a2 2 0 0 0-2 2v13a2 2 0 0 0 2 2Z"></path></symbol>
  <symbol id="i-branch" viewBox="0 0 24 24" fill="none" stroke="currentColor" stroke-width="1.8" stroke-linecap="round" stroke-linejoin="round"><circle cx="6" cy="6" r="2"></circle><circle cx="6" cy="18" r="2"></circle><circle cx="18" cy="8" r="2"></circle><path d="M18 10a6 6 0 0 1-6 6H6"></path><path d="M6 8v8"></path></symbol>
  <symbol id="i-layers" viewBox="0 0 24 24" fill="none" stroke="currentColor" stroke-width="1.8" stroke-linecap="round" stroke-linejoin="round"><path d="m12 2 9 5-9 5-9-5 9-5Z"></path><path d="m3 12 9 5 9-5"></path><path d="m3 17 9 5 9-5"></path></symbol>
  <symbol id="i-eye" viewBox="0 0 24 24" fill="none" stroke="currentColor" stroke-width="1.8" stroke-linecap="round" stroke-linejoin="round"><path d="M2 12s3.5-7 10-7 10 7 10 7-3.5 7-10 7-10-7-10-7Z"></path><circle cx="12" cy="12" r="3"></circle></symbol>
  <symbol id="i-bars" viewBox="0 0 24 24" fill="none" stroke="currentColor" stroke-width="1.8" stroke-linecap="round" stroke-linejoin="round"><line x1="6" y1="20" x2="6" y2="14"></line><line x1="12" y1="20" x2="12" y2="9"></line><line x1="18" y1="20" x2="18" y2="4"></line></symbol>
  <symbol id="i-image" viewBox="0 0 24 24" fill="none" stroke="currentColor" stroke-width="1.8" stroke-linecap="round" stroke-linejoin="round"><rect x="3" y="3" width="18" height="18" rx="2"></rect><circle cx="9" cy="9" r="2"></circle><path d="m21 15-5-5L5 21"></path></symbol>
  <symbol id="i-cpu" viewBox="0 0 24 24" fill="none" stroke="currentColor" stroke-width="1.8" stroke-linecap="round" stroke-linejoin="round"><rect x="4" y="4" width="16" height="16" rx="2"></rect><rect x="9" y="9" width="6" height="6"></rect><path d="M9 1v3M15 1v3M9 20v3M15 20v3M20 9h3M20 14h3M1 9h3M1 14h3"></path></symbol>
  <symbol id="i-search" viewBox="0 0 24 24" fill="none" stroke="currentColor" stroke-width="1.8" stroke-linecap="round" stroke-linejoin="round"><circle cx="11" cy="11" r="8"></circle><path d="m21 21-4.3-4.3"></path></symbol>
  <symbol id="i-spark" viewBox="0 0 24 24" fill="none" stroke="currentColor" stroke-width="1.8" stroke-linecap="round" stroke-linejoin="round"><path d="M12 2l2.2 6.3L21 11l-6.8 2.7L12 20l-2.2-6.3L3 11l6.8-2.7L12 2Z"></path></symbol>
  <symbol id="i-logout" viewBox="0 0 24 24" fill="none" stroke="currentColor" stroke-width="1.8" stroke-linecap="round" stroke-linejoin="round"><path d="M9 21H5a2 2 0 0 1-2-2V5a2 2 0 0 1 2-2h4"></path><path d="m16 17 5-5-5-5"></path><path d="M21 12H9"></path></symbol>
  <symbol id="i-refresh" viewBox="0 0 24 24" fill="none" stroke="currentColor" stroke-width="1.8" stroke-linecap="round" stroke-linejoin="round"><path d="M21 12a9 9 0 1 1-2.6-6.4"></path><path d="M21 3v5h-5"></path></symbol>
  <symbol id="i-clock" viewBox="0 0 24 24" fill="none" stroke="currentColor" stroke-width="1.8" stroke-linecap="round" stroke-linejoin="round"><circle cx="12" cy="12" r="9"></circle><path d="M12 7v5l3 2"></path></symbol>

  
  <symbol id="i-plus" viewBox="0 0 24 24" fill="none" stroke="currentColor" stroke-width="1.8" stroke-linecap="round" stroke-linejoin="round"><path d="M12 5v14M5 12h14"></path></symbol>
  <symbol id="i-check" viewBox="0 0 24 24" fill="none" stroke="currentColor" stroke-width="1.8" stroke-linecap="round" stroke-linejoin="round"><path d="m20 6-11 11-5-5"></path></symbol>
  <symbol id="i-x" viewBox="0 0 24 24" fill="none" stroke="currentColor" stroke-width="1.8" stroke-linecap="round" stroke-linejoin="round"><path d="M18 6 6 18M6 6l12 12"></path></symbol>
  <symbol id="i-chevron-down" viewBox="0 0 24 24" fill="none" stroke="currentColor" stroke-width="1.8" stroke-linecap="round" stroke-linejoin="round"><path d="m6 9 6 6 6-6"></path></symbol>
  <symbol id="i-chevron-right" viewBox="0 0 24 24" fill="none" stroke="currentColor" stroke-width="1.8" stroke-linecap="round" stroke-linejoin="round"><path d="m9 6 6 6-6 6"></path></symbol>
  <symbol id="i-arrow-right" viewBox="0 0 24 24" fill="none" stroke="currentColor" stroke-width="1.8" stroke-linecap="round" stroke-linejoin="round"><path d="M5 12h14M13 6l6 6-6 6"></path></symbol>
  <symbol id="i-play" viewBox="0 0 24 24" fill="none" stroke="currentColor" stroke-width="1.8" stroke-linecap="round" stroke-linejoin="round"><path d="m6 4 14 8-14 8V4Z"></path></symbol>
  <symbol id="i-pause" viewBox="0 0 24 24" fill="none" stroke="currentColor" stroke-width="1.8" stroke-linecap="round" stroke-linejoin="round"><rect x="6" y="5" width="4" height="14" rx="1"></rect><rect x="14" y="5" width="4" height="14" rx="1"></rect></symbol>
  <symbol id="i-filter" viewBox="0 0 24 24" fill="none" stroke="currentColor" stroke-width="1.8" stroke-linecap="round" stroke-linejoin="round"><path d="M22 3H2l8 9.5V19l4 2v-8.5L22 3Z"></path></symbol>
  <symbol id="i-more" viewBox="0 0 24 24" fill="none" stroke="currentColor" stroke-width="1.8" stroke-linecap="round" stroke-linejoin="round"><circle cx="12" cy="5" r="1.4"></circle><circle cx="12" cy="12" r="1.4"></circle><circle cx="12" cy="19" r="1.4"></circle></symbol>
  <symbol id="i-download" viewBox="0 0 24 24" fill="none" stroke="currentColor" stroke-width="1.8" stroke-linecap="round" stroke-linejoin="round"><path d="M21 15v4a2 2 0 0 1-2 2H5a2 2 0 0 1-2-2v-4M7 10l5 5 5-5M12 15V3"></path></symbol>
  <symbol id="i-upload" viewBox="0 0 24 24" fill="none" stroke="currentColor" stroke-width="1.8" stroke-linecap="round" stroke-linejoin="round"><path d="M21 15v4a2 2 0 0 1-2 2H5a2 2 0 0 1-2-2v-4M17 8l-5-5-5 5M12 3v12"></path></symbol>
  <symbol id="i-settings" viewBox="0 0 24 24" fill="none" stroke="currentColor" stroke-width="1.8" stroke-linecap="round" stroke-linejoin="round"><circle cx="12" cy="12" r="3"></circle><path d="M19.4 15a1.65 1.65 0 0 0 .33 1.82l.06.06a2 2 0 1 1-2.83 2.83l-.06-.06a1.65 1.65 0 0 0-1.82-.33 1.65 1.65 0 0 0-1 1.51V21a2 2 0 0 1-4 0v-.09A1.65 1.65 0 0 0 9 19.4a1.65 1.65 0 0 0-1.82.33l-.06.06a2 2 0 1 1-2.83-2.83l.06-.06a1.65 1.65 0 0 0 .33-1.82 1.65 1.65 0 0 0-1.51-1H3a2 2 0 0 1 0-4h.09A1.65 1.65 0 0 0 4.6 9a1.65 1.65 0 0 0-.33-1.82l-.06-.06a2 2 0 1 1 2.83-2.83l.06.06a1.65 1.65 0 0 0 1.82.33H9a1.65 1.65 0 0 0 1-1.51V3a2 2 0 0 1 4 0v.09a1.65 1.65 0 0 0 1 1.51 1.65 1.65 0 0 0 1.82-.33l.06-.06a2 2 0 1 1 2.83 2.83l-.06.06a1.65 1.65 0 0 0-.33 1.82V9a1.65 1.65 0 0 0 1.51 1H21a2 2 0 0 1 0 4h-.09a1.65 1.65 0 0 0-1.51 1Z"></path></symbol>
  <symbol id="i-file" viewBox="0 0 24 24" fill="none" stroke="currentColor" stroke-width="1.8" stroke-linecap="round" stroke-linejoin="round"><path d="M14 2H6a2 2 0 0 0-2 2v16a2 2 0 0 0 2 2h12a2 2 0 0 0 2-2V8Z"></path><path d="M14 2v6h6"></path></symbol>
  <symbol id="i-activity" viewBox="0 0 24 24" fill="none" stroke="currentColor" stroke-width="1.8" stroke-linecap="round" stroke-linejoin="round"><path d="M22 12h-4l-3 9L9 3l-3 9H2"></path></symbol>
  <symbol id="i-check-circle" viewBox="0 0 24 24" fill="none" stroke="currentColor" stroke-width="1.8" stroke-linecap="round" stroke-linejoin="round"><path d="M22 11.08V12a10 10 0 1 1-5.93-9.14"></path><path d="m9 11 3 3L22 4"></path></symbol>
  <symbol id="i-alert" viewBox="0 0 24 24" fill="none" stroke="currentColor" stroke-width="1.8" stroke-linecap="round" stroke-linejoin="round"><path d="M10.29 3.86 1.82 18a2 2 0 0 0 1.71 3h16.94a2 2 0 0 0 1.71-3L13.71 3.86a2 2 0 0 0-3.42 0Z"></path><path d="M12 9v4M12 17h.01"></path></symbol>
</svg>